<mxfile host="app.diagrams.net" agent="Mozilla/5.0 (X11; Linux x86_64) AppleWebKit/537.36 (KHTML, like Gecko) Chrome/128.0.0.0 Safari/537.36" version="24.8.0">
  <diagram name="Page-1" id="29kKAwcPZKMKyKBCYIfu">
    <mxGraphModel dx="2265" dy="1031" grid="1" gridSize="10" guides="1" tooltips="1" connect="1" arrows="1" fold="1" page="0" pageScale="1" pageWidth="850" pageHeight="1100" math="0" shadow="0">
      <root>
        <mxCell id="0" />
        <mxCell id="1" parent="0" />
        <mxCell id="SNaFZf4I-7EvhEzYSPNH-1" value="" style="rounded=0;whiteSpace=wrap;html=1;" vertex="1" parent="1">
          <mxGeometry width="3500" height="2050" as="geometry" />
        </mxCell>
        <mxCell id="SNaFZf4I-7EvhEzYSPNH-3" value="" style="rounded=0;whiteSpace=wrap;html=1;" vertex="1" parent="1">
          <mxGeometry x="330" y="2050" width="2840" height="100" as="geometry" />
        </mxCell>
        <mxCell id="SNaFZf4I-7EvhEzYSPNH-4" value="Thickness: 2.6mm" style="text;html=1;align=center;verticalAlign=middle;whiteSpace=wrap;rounded=0;" vertex="1" parent="1">
          <mxGeometry x="-150" y="2020" width="120" height="30" as="geometry" />
        </mxCell>
        <mxCell id="SNaFZf4I-7EvhEzYSPNH-5" value="10pt = 1mm" style="text;html=1;align=center;verticalAlign=middle;whiteSpace=wrap;rounded=0;" vertex="1" parent="1">
          <mxGeometry x="-140" y="2050" width="100" height="30" as="geometry" />
        </mxCell>
      </root>
    </mxGraphModel>
  </diagram>
</mxfile>
